{
  "header": {
    "PPQ": 384,
    "timeSignature": [
      4,
      4
    ],
    "bpm": 70,
    "name": "Ode to Joy"
  },
  "startTime": 0,
  "duration": 54.85708800000005,
  "tracks": [
    {
      "startTime": 0,
      "duration": 54.85708800000005,
      "length": 62,
      "notes": [
        {
          "name": "E4",
          "midi": 52,
          "time": 0,
          "velocity": 0.3937007874015748,
          "duration": 0.8571420000000001
        },
        {
          "name": "E4",
          "midi": 52,
          "time": 0.8571420000000001,
          "velocity": 0.3937007874015748,
          "duration": 0.8571420000000001
        },
        {
          "name": "F4",
          "midi": 53,
          "time": 1.7142840000000001,
          "velocity": 0.3937007874015748,
          "duration": 0.8571420000000001
        },
        {
          "name": "G4",
          "midi": 55,
          "time": 2.571426,
          "velocity": 0.3937007874015748,
          "duration": 0.8571420000000001
        },
        {
          "name": "G4",
          "midi": 55,
          "time": 3.4285680000000003,
          "velocity": 0.3937007874015748,
          "duration": 0.8571419999999996
        },
        {
          "name": "F4",
          "midi": 53,
          "time": 4.28571,
          "velocity": 0.3937007874015748,
          "duration": 0.8571419999999996
        },
        {
          "name": "E4",
          "midi": 52,
          "time": 5.1428519999999995,
          "velocity": 0.3937007874015748,
          "duration": 0.8571419999999996
        },
        {
          "name": "D4",
          "midi": 50,
          "time": 5.999993999999999,
          "velocity": 0.3937007874015748,
          "duration": 0.8571419999999996
        },
        {
          "name": "C4",
          "midi": 48,
          "time": 6.857135999999999,
          "velocity": 0.3937007874015748,
          "duration": 0.8571419999999996
        },
        {
          "name": "C4",
          "midi": 48,
          "time": 7.714277999999998,
          "velocity": 0.3937007874015748,
          "duration": 0.8571419999999996
        },
        {
          "name": "D4",
          "midi": 50,
          "time": 8.571419999999998,
          "velocity": 0.3937007874015748,
          "duration": 0.8571419999999996
        },
        {
          "name": "E4",
          "midi": 52,
          "time": 9.428561999999998,
          "velocity": 0.3937007874015748,
          "duration": 0.8571419999999996
        },
        {
          "name": "E4",
          "midi": 52,
          "time": 10.285703999999997,
          "velocity": 0.3937007874015748,
          "duration": 1.2857129999999994
        },
        {
          "name": "D4",
          "midi": 50,
          "time": 11.571416999999997,
          "velocity": 0.3937007874015748,
          "duration": 0.4285709999999998
        },
        {
          "name": "D4",
          "midi": 50,
          "time": 11.999987999999997,
          "velocity": 0.3937007874015748,
          "duration": 1.714284000000001
        },
        {
          "name": "E4",
          "midi": 52,
          "time": 13.714271999999998,
          "velocity": 0.3937007874015748,
          "duration": 0.8571419999999996
        },
        {
          "name": "E4",
          "midi": 52,
          "time": 14.571413999999997,
          "velocity": 0.3937007874015748,
          "duration": 0.8571419999999996
        },
        {
          "name": "F4",
          "midi": 53,
          "time": 15.428555999999997,
          "velocity": 0.3937007874015748,
          "duration": 0.8571419999999996
        },
        {
          "name": "G4",
          "midi": 55,
          "time": 16.285697999999996,
          "velocity": 0.3937007874015748,
          "duration": 0.8571419999999996
        },
        {
          "name": "G4",
          "midi": 55,
          "time": 17.142839999999996,
          "velocity": 0.3937007874015748,
          "duration": 0.8571419999999996
        },
        {
          "name": "F4",
          "midi": 53,
          "time": 17.999981999999996,
          "velocity": 0.3937007874015748,
          "duration": 0.8571419999999996
        },
        {
          "name": "E4",
          "midi": 52,
          "time": 18.857123999999995,
          "velocity": 0.3937007874015748,
          "duration": 0.8571419999999996
        },
        {
          "name": "D4",
          "midi": 50,
          "time": 19.714265999999995,
          "velocity": 0.3937007874015748,
          "duration": 0.8571419999999996
        },
        {
          "name": "C4",
          "midi": 48,
          "time": 20.571407999999995,
          "velocity": 0.3937007874015748,
          "duration": 0.8571419999999996
        },
        {
          "name": "C4",
          "midi": 48,
          "time": 21.428549999999994,
          "velocity": 0.3937007874015748,
          "duration": 0.8571419999999996
        },
        {
          "name": "D4",
          "midi": 50,
          "time": 22.285691999999994,
          "velocity": 0.3937007874015748,
          "duration": 0.8571419999999996
        },
        {
          "name": "E4",
          "midi": 52,
          "time": 23.142833999999993,
          "velocity": 0.3937007874015748,
          "duration": 0.8571419999999996
        },
        {
          "name": "D4",
          "midi": 50,
          "time": 23.999975999999993,
          "velocity": 0.3937007874015748,
          "duration": 1.2857130000000012
        },
        {
          "name": "C4",
          "midi": 48,
          "time": 25.285688999999994,
          "velocity": 0.3937007874015748,
          "duration": 0.4285710000000016
        },
        {
          "name": "C4",
          "midi": 48,
          "time": 25.714259999999996,
          "velocity": 0.3937007874015748,
          "duration": 1.7142839999999993
        },
        {
          "name": "D4",
          "midi": 50,
          "time": 27.428543999999995,
          "velocity": 0.3937007874015748,
          "duration": 0.8571419999999996
        },
        {
          "name": "D4",
          "midi": 50,
          "time": 28.285685999999995,
          "velocity": 0.3937007874015748,
          "duration": 0.8571419999999996
        },
        {
          "name": "E4",
          "midi": 52,
          "time": 29.142827999999994,
          "velocity": 0.3937007874015748,
          "duration": 0.8571419999999996
        },
        {
          "name": "C4",
          "midi": 48,
          "time": 29.999969999999994,
          "velocity": 0.3937007874015748,
          "duration": 0.8571419999999996
        },
        {
          "name": "D4",
          "midi": 50,
          "time": 30.857111999999994,
          "velocity": 0.3937007874015748,
          "duration": 0.8571419999999996
        },
        {
          "name": "E4",
          "midi": 52,
          "time": 31.714253999999993,
          "velocity": 0.3937007874015748,
          "duration": 0.4285710000000016
        },
        {
          "name": "F4",
          "midi": 53,
          "time": 32.142824999999995,
          "velocity": 0.3937007874015748,
          "duration": 0.42857099999999804
        },
        {
          "name": "E4",
          "midi": 52,
          "time": 32.57139599999999,
          "velocity": 0.3937007874015748,
          "duration": 0.8571420000000032
        },
        {
          "name": "C4",
          "midi": 48,
          "time": 33.428537999999996,
          "velocity": 0.3937007874015748,
          "duration": 0.8571420000000032
        },
        {
          "name": "D4",
          "midi": 50,
          "time": 34.28568,
          "velocity": 0.3937007874015748,
          "duration": 0.8571420000000032
        },
        {
          "name": "E4",
          "midi": 52,
          "time": 35.142822,
          "velocity": 0.3937007874015748,
          "duration": 0.42857099999999804
        },
        {
          "name": "F4",
          "midi": 53,
          "time": 35.571393,
          "velocity": 0.3937007874015748,
          "duration": 0.42857099999999804
        },
        {
          "name": "E4",
          "midi": 52,
          "time": 35.999964,
          "velocity": 0.3937007874015748,
          "duration": 0.8571420000000032
        },
        {
          "name": "D4",
          "midi": 50,
          "time": 36.857106,
          "velocity": 0.3937007874015748,
          "duration": 0.8571420000000032
        },
        {
          "name": "C4",
          "midi": 48,
          "time": 37.714248000000005,
          "velocity": 0.3937007874015748,
          "duration": 0.8571420000000032
        },
        {
          "name": "D4",
          "midi": 50,
          "time": 38.57139000000001,
          "velocity": 0.3937007874015748,
          "duration": 0.8571420000000032
        },
        {
          "name": "G3",
          "midi": 43,
          "time": 39.42853200000001,
          "velocity": 0.3937007874015748,
          "duration": 0.8571420000000032
        },
        {
          "name": "E4",
          "midi": 52,
          "time": 40.285674000000014,
          "velocity": 0.3937007874015748,
          "duration": 1.7142839999999993
        },
        {
          "name": "E4",
          "midi": 52,
          "time": 41.999958000000014,
          "velocity": 0.3937007874015748,
          "duration": 0.8571420000000032
        },
        {
          "name": "F4",
          "midi": 53,
          "time": 42.85710000000002,
          "velocity": 0.3937007874015748,
          "duration": 0.8571420000000032
        },
        {
          "name": "G4",
          "midi": 55,
          "time": 43.71424200000002,
          "velocity": 0.3937007874015748,
          "duration": 0.8571420000000032
        },
        {
          "name": "G4",
          "midi": 55,
          "time": 44.57138400000002,
          "velocity": 0.3937007874015748,
          "duration": 0.8571420000000032
        },
        {
          "name": "F4",
          "midi": 53,
          "time": 45.428526000000026,
          "velocity": 0.3937007874015748,
          "duration": 0.8571420000000032
        },
        {
          "name": "E4",
          "midi": 52,
          "time": 46.28566800000003,
          "velocity": 0.3937007874015748,
          "duration": 0.8571420000000032
        },
        {
          "name": "D4",
          "midi": 50,
          "time": 47.14281000000003,
          "velocity": 0.3937007874015748,
          "duration": 0.8571420000000032
        },
        {
          "name": "C4",
          "midi": 48,
          "time": 47.999952000000036,
          "velocity": 0.3937007874015748,
          "duration": 0.8571420000000032
        },
        {
          "name": "C4",
          "midi": 48,
          "time": 48.85709400000004,
          "velocity": 0.3937007874015748,
          "duration": 0.8571420000000032
        },
        {
          "name": "D4",
          "midi": 50,
          "time": 49.71423600000004,
          "velocity": 0.3937007874015748,
          "duration": 0.8571420000000032
        },
        {
          "name": "E4",
          "midi": 52,
          "time": 50.571378000000045,
          "velocity": 0.3937007874015748,
          "duration": 0.8571420000000032
        },
        {
          "name": "D4",
          "midi": 50,
          "time": 51.42852000000005,
          "velocity": 0.3937007874015748,
          "duration": 1.2857130000000012
        },
        {
          "name": "C4",
          "midi": 48,
          "time": 52.71423300000005,
          "velocity": 0.3937007874015748,
          "duration": 0.42857099999999804
        },
        {
          "name": "C4",
          "midi": 48,
          "time": 53.14280400000005,
          "velocity": 0.3937007874015748,
          "duration": 1.7142839999999993
        }
      ],
      "controlChanges": {},
      "id": 1,
      "name": "Electric Piano",
      "instrumentNumber": 0,
      "instrument": "acoustic grand piano",
      "instrumentFamily": "piano",
      "channelNumber": 0,
      "isPercussion": false
    }
  ]
}
