<svg id="Layer_1" data-name="Layer 1" xmlns="http://www.w3.org/2000/svg" xmlns:xlink="http://www.w3.org/1999/xlink" viewBox="0 0 1920 1080"><defs><style>.cls-1,.cls-2{fill:none;}.cls-1{clip-rule:evenodd;}.cls-3{clip-path:url(#clip-path);}.cls-4{clip-path:url(#clip-path-2);}.cls-5{fill:#f7bd34;}.cls-6{clip-path:url(#clip-path-3);}.cls-7{fill:#fa9056;}.cls-8{clip-path:url(#clip-path-5);}.cls-9{fill:#f35e99;}.cls-10{clip-path:url(#clip-path-7);}.cls-11{fill:#cd3d9c;}.cls-12{clip-path:url(#clip-path-9);}.cls-13{fill:#655ba8;}.cls-14{clip-path:url(#clip-path-11);}.cls-15{fill:#526eb1;}.cls-16{clip-path:url(#clip-path-13);}.cls-17{fill:#3693c2;}.cls-18{clip-path:url(#clip-path-15);}.cls-19{clip-path:url(#clip-path-16);}.cls-20{fill:#36b3cd;}</style><clipPath id="clip-path"><path class="cls-1" d="M-66.39-94.2c0,3011.61-125.22,447,6.51,403.84,5.6-1.83,11.6-2.65,17.51-3.51,43.1-6.25,86.16-12.75,129.47-17.79,24.94-2.9,50.17-3.61,75.17-6,51.58-5,102.91-11.83,154.56-16.28,77.77-6.7,155.8-11,233.63-17.18a178,178,0,0,0,20-2.87,11.41,11.41,0,0,0,4.69-1.94c1.16-.88,1.52-2.32,2.35-3.44l5.29-14.8a714.52,714.52,0,0,1,49.67-59.88C680.89,113.25,731.92,62.39,781,10.21,828.68-40.4,874.25-94.47,908.45-152.58c4.31-7.33,38.8-55.81,30.25-75.84a4.47,4.47,0,0,0-3.61-2.48c-13.66-.72-12.86,2.76-25.14,5.5-24.51,5.48-49,11-73.88,15.22s-50.24,6.83-75.41,10c-442.94,55-112.81,15-650.83,68.21C66.8-127.76,23-115.9-21.73-112Z"/></clipPath><clipPath id="clip-path-2"><rect class="cls-2" x="-14.31" y="-38.96" width="1934.06" height="1177.11"/></clipPath><clipPath id="clip-path-3"><path class="cls-1" d="M614.31-82.08c-48.92,0,2.53-1.54-102.64,61.28-7.54,4.5-57.39,27.85-78.25,33.26s-103.24,29.85-117.82,34S262.94,70.88,227,103.15,155.29,172.52,136.52,186s-65.75,36.19-99,55.5S-58.4,317.24-59,258.34c-.22-20.58-10.3,0-23.51,21.47-20.14,32.66-26.91,77.4-30.16,112.77-3.34,36.44-4.47,73-5.37,109.55-1.39,56.18-3.56,112.4-1.49,168.57.09,2.54,4.92,3.15,7.84,3.65,11.91,2,24,4.07,36.15,3.91,212.8-2.94,133-2.86,318.26-26.25,87.14-11,174.9-18.43,261.75-31,112.33-16.25,224.82-39,332.41-71.4,44.7-13.46,93.37-26.41,130.52-52.61,104.57-73.76,198.48-172,285.09-255.5,66.58-64.17,95.88-144.49,89.85-229a154.15,154.15,0,0,0-5.87-32.74c-2.11-7.14-12.89-14.06-19.14-17.36-63.57-33.52-87.24-43.15-162.47-69.56-71.57-25.13-153.06-54-230.94-62.08-130.63-13.58-250.07,8.15-376.55,35.14,4.92,8.06,31.24,13.86,31.64,14Z"/></clipPath><clipPath id="clip-path-5"><path class="cls-1" d="M1480.86-123.86c-162.05,0-306.85-12.77-452.1,52.67-48.25,21.74-26.4,14.67-70.24,38.26C892.17,2.77,829.79,41,762.39,76.77c-152,80.6-267.65,81.38-347,146.19-58.36,47.69-139.66,142.2-207.65,182.83S59.4,469.33,39.36,470.33c-183.29,9.11,37.85,6.76-151.51,6.76l-8.27,562L1920.73,947,1909.29-227.48Z"/></clipPath><clipPath id="clip-path-7"><path class="cls-1" d="M-67.81,734.29C15.42,731.09,59.68,703.47,133.5,673c89.72-37,141.24-67.18,215.93-124.93C443,475.73,475.12,422.56,581.58,354c102.75-66.2,179.92-96.15,297.93-153.88s364.78-60.6,511.89-122.5S1604.61-105,1604.61-105c46.19,0-181.12,15.45-171.36-21.44,3.69-5.42,3-8.34,3-11.18L1954.77-105l-9,1257-2206.1,8.48Z"/></clipPath><clipPath id="clip-path-9"><path class="cls-1" d="M314.69,751.95c-7.08,5.34-201.47,125.13-217.17,132.63-86.36,41.21-186.05,74.69-245.59,146-20.62,24.71-16.2,49.92-14.21,79.2,8.77,129.08,217.1,148.62,324.71,163.09a337.77,337.77,0,0,0,39.84,3.08c81.71,1.23,199.69.61,284.85-3.31,157.83-7.26,226.15-18.28,380.86-11.53,711.52,31.06,1095.57-17,1095.57-17l-24.1-1163c-149.89,117-297.82,198.78-493.43,252.5-150.18,41.25-304.43,52.88-459.11,78.34C921,422.83,858,429.09,795.17,449.34,705,478.41,619.62,517.42,547.54,572.78,489.29,617.52,373.35,707.75,314.69,751.95Z"/></clipPath><clipPath id="clip-path-11"><path class="cls-1" d="M1921.44,365.88v772.27H-14.31s-2.81-4,18.16-13.74c57.09-26.52,86-41,136.16-73.23,6.49-4.17,137.73-89.24,162.27-108.51,37.63-29.56,70.8-62.22,109.14-91.27,63.14-47.84,137.15-98.77,216.22-133.53,142.61-62.69,321.23-111,486.73-119,155.4-7.51,313.39-25.88,467.63-46.76,90.24-12.22,148.37-27.9,223.08-65.56C1874.33,451.64,1921.44,365.88,1921.44,365.88Z"/></clipPath><clipPath id="clip-path-13"><path class="cls-1" d="M1930.87,588.38S1803.59,678.83,1684.72,702c-91.09,17.77-241.66,4.76-425.51,26-137.91,16-235.36,47.33-362.87,82.79-88.42,24.59-181.09,58.58-250.2,99.12-35.9,21.06-189.71,123-226.4,164.72-19.84,22.58-39,45.43-54.92,69-6.29,9.36-19.33,20.53-11.26,29.41,5.68,6.25,24.22-1.69,36.4-1.75,203.12-.92,16.77.23,139.62,4.15,97.64,3.12,195.26.44,292.81-.88,148.22-2,146.65,1.39,288.5-4.8,48-2.09,95.65-6.09,143.61-8.23,192-8.57,243.35-7.13,460-6,71.06.37,176.39,21.39,244.83,6.9,1.14-.24-3.5-29.72-3.38-31.45,1.33-18.77,4.36-37.51,4.94-56.29,1.07-34.35-1.91-68.74,0-103.08"/></clipPath><clipPath id="clip-path-15"><path class="cls-1" d="M1944.92,744c-27.47,29.05-58.78,63.77-117.24,76.24-126.8,27-274.11,12.73-388.56,32.38-99.73,17.12-161.15,40.6-259.06,76.86-54.9,20.33-241.77,46.79-292.12,63.74-61.6,20.74-134.75,61.71-184.43,83.14-47.81,20.63-110.74,61.67-141.8,91.92s1393.05-28.08,1393.05-28.08Z"/></clipPath><clipPath id="clip-path-16"><rect class="cls-2" x="-7.92" y="-5.16" width="1934.06" height="1128.04"/></clipPath></defs><title>bg</title><g class="cls-3"><g class="cls-4"><rect class="cls-5" x="-126.88" y="-236.74" width="1073.65" height="1611.2"/></g></g><g class="cls-6"><g class="cls-4"><rect class="cls-7" x="-127.13" y="-179.2" width="1476.92" height="863.21"/></g></g><g class="cls-8"><g class="cls-4"><rect class="cls-9" x="-127.13" y="-233.23" width="2054.58" height="1278.03"/></g></g><g class="cls-10"><g class="cls-4"><rect class="cls-11" x="-267.05" y="-143.36" width="2228.54" height="1309.56"/></g></g><g class="cls-12"><g class="cls-4"><rect class="cls-13" x="-170.81" y="75.38" width="2141.08" height="1206.9"/></g></g><g class="cls-14"><g class="cls-4"><polygon class="cls-15" points="-21.16 1143.89 1928.15 1143.89 2009.68 171.25 -21.16 400.15 -21.16 1143.89"/></g></g><g class="cls-16"><g class="cls-4"><rect class="cls-17" x="344.29" y="544.42" width="1645.83" height="638.31"/></g></g><g class="cls-18"><g class="cls-19"><rect class="cls-20" x="588.54" y="766.51" width="1406.98" height="415.97"/></g></g></svg>